<svg viewBox="0 0 51 50" fill="none" xmlns="http://www.w3.org/2000/svg" class="loader header__logo-helper_loader">
    <path d="M25.0788 50C23.8569 50 22.601 49.8983 21.3791 49.7288C7.73447 47.6949 -1.73534 34.9831 0.267237 21.322C1.14973 15.3559 4.17056 9.89831 8.75273 6C13.3009 2.13559 19.0711 0 25.0109 0C26.2328 0 27.4887 0.101695 28.7106 0.271186C35.2953 1.25424 41.1673 4.74576 45.1385 10.1017C49.1097 15.4576 50.7729 22.0678 49.7886 28.678C48.9061 34.6441 45.8852 40.1017 41.3031 44C36.7888 47.8644 31.0187 50 25.0788 50ZM25.0109 2C19.5463 2 14.2174 3.9661 10.0425 7.52542C5.83372 11.1186 3.05048 16.1356 2.23587 21.6271C0.369063 34.1695 9.09215 45.8983 21.6507 47.7627C22.7708 47.9322 23.9248 48 25.0449 48C30.5095 48 35.8384 46.0339 40.0133 42.4746C44.2221 38.8814 47.0053 33.8644 47.8199 28.3729C48.7364 22.3051 47.209 16.2373 43.5093 11.2881C39.8436 6.33898 34.4807 3.15254 28.3712 2.23729C27.285 2.0678 26.131 2 25.0109 2Z"
          fill="#A29A4B" class="loader__1"/>
    <path d="M23.1441 46.2034C22.0919 46.2034 21.0058 46.1356 19.9536 46L19.7839 45.9661C14.8962 44.3051 10.7214 40.8475 8.03994 36.3051C5.2567 31.6272 4.34027 26.2034 5.39247 20.9831C7.42899 10.9153 16.6273 3.59326 27.285 3.59326C28.2694 3.59326 29.2537 3.66106 30.238 3.76275C34.6504 4.30513 38.6216 6.8136 41.4728 10.8136C45.0027 15.7967 46.2925 22.5424 44.9009 28.8136C42.6268 39.0509 33.7001 46.2034 23.1441 46.2034ZM20.259 44.339C21.2094 44.4746 22.1937 44.5424 23.1441 44.5424C32.9194 44.5424 41.2012 37.9322 43.3056 28.4746C44.5954 22.6441 43.4075 16.4068 40.149 11.7967C37.5694 8.16953 34.0055 5.89835 30.0683 5.42377C29.1518 5.32208 28.2354 5.25428 27.319 5.25428C17.4419 5.25428 8.92243 12 7.05563 21.3221C5.01911 30.9492 10.8571 41.0848 20.259 44.339Z"
          fill="#A29A4B" class="loader__2"/>
    <path d="M21.1755 42.3729C20.293 42.3729 19.3766 42.3051 18.4941 42.2034L18.3244 42.1695L18.1886 42.0678C12.5203 37.661 7.93813 29.2881 10.4838 20.5085C12.7918 12.5085 20.4627 7.11865 29.5931 7.11865C30.3059 7.11865 31.0526 7.15255 31.7654 7.22035C34.2431 7.45764 36.5512 8.98306 38.2483 11.5932C41.2691 16.1695 41.948 22.9831 40.0133 28.9831C37.3319 37.0848 29.9665 42.3729 21.1755 42.3729ZM18.8335 40.9153C19.6142 41.017 20.3948 41.0509 21.1755 41.0509C29.3555 41.0509 36.2457 36.1356 38.7235 28.5424C40.5564 22.9492 39.9115 16.5424 37.1282 12.3051C35.6687 10.0678 33.7001 8.74577 31.6296 8.54238C30.9508 8.47458 30.238 8.44069 29.5592 8.44069C21.0397 8.44069 13.878 13.4576 11.7396 20.9153C9.39763 28.9492 13.7761 36.8814 18.8335 40.9153Z"
          fill="#A29A4B" class="loader__3"/>
    <path fill-rule="evenodd" clip-rule="evenodd"
          d="M36.076 13.3898C35.3632 11.8983 34.4468 10.9492 33.3946 10.678C32.2066 10.3729 31.0187 10.2373 29.8646 10.2373C23.1102 10.2373 17.8492 15.1865 15.5751 20.1017C14.2853 22.8814 13.878 26.0339 14.3532 29.6949C14.3871 29.9322 14.5229 29.9322 14.5568 29.6949C14.7265 28.9153 14.9302 28.1356 15.1678 27.4576C15.0999 24.8814 15.5072 22.5763 16.4576 20.5085C18.6298 15.8983 23.5854 11.2543 29.8646 11.2543C30.9508 11.2543 32.0709 11.3898 33.157 11.661C33.9037 11.8305 34.6165 12.6102 35.1596 13.7966C37.1961 18.1695 36.1778 24.5424 34.1753 28.6102C31.392 34.2034 25.8255 37.5254 19.2408 37.5254C18.6638 37.5254 18.0868 37.4915 17.4758 37.4576C17.1703 36.6102 16.8649 35.8305 16.6273 35.017C15.8805 31.4915 18.4601 27.1187 22.2616 23.5593C26.0631 20 32.0369 17.1526 32.3085 17.322C32.58 17.4915 26.4365 20.1356 21.9562 25.1865C18.9693 28.5424 17.5776 32.339 18.2225 34.9831C20.9718 34.7797 25.3843 33.7966 28.9821 29.6949C34.5147 23.4576 34.7862 14.4746 34.7862 14.4746C34.7862 14.4746 26.6401 14.6441 21.0058 20.0678C17.1703 23.7966 14.7944 30.1695 15.609 35.1526C15.9145 36.1017 16.2539 37.1187 16.6612 38.1356L16.763 38.4068L17.0685 38.4407C17.7813 38.5085 18.528 38.5424 19.2408 38.5424C26.1989 38.5424 32.1387 35.017 35.0578 29.0848C38.0107 23.1526 37.6373 16.8136 36.076 13.3898Z"
          fill="#A29A4B" class="loader__4"/>
</svg>